<?xml version="1.0" encoding="UTF-8"?>
<svg id="_Слой_2" data-name="Слой 2" xmlns="http://www.w3.org/2000/svg" viewBox="0 0 946.39 95.61">
  <defs>
    <style>
      .cls-1 {
        fill: #fff;
      }
    </style>
  </defs>
  <g id="_Слой_1-2" data-name="Слой 1">
    <g>
      <polygon class="cls-1" points="0 23.1 37.03 23.1 37.03 94.07 59.92 94.07 59.92 23.1 96.95 23.1 96.95 4.07 0 4.07 0 23.1"/>
      <path class="cls-1" d="m212.41,4.07h-28.29l-19.42,22.89c-2.14,2.83-3.66,5.21-4.56,7.14-.9,1.93-1.35,3.79-1.35,5.59v1.54h-2.18v-1.54c0-1.8-.45-3.66-1.35-5.59-.9-1.93-2.42-4.31-4.56-7.14l-19.42-22.89h-28.29l37.93,44.36-39.22,45.64h28.8l20.96-24.69c1.88-2.48,3.21-4.56,3.98-6.24.77-1.67,1.16-3.41,1.16-5.2v-1.16h2.18v1.16c0,1.8.39,3.54,1.16,5.2.77,1.67,2.1,3.75,3.98,6.24l20.96,24.69h28.8l-39.22-45.64L212.41,4.07Z"/>
      <polygon class="cls-1" points="218.45 23.1 255.48 23.1 255.48 94.07 278.37 94.07 278.37 23.1 315.4 23.1 315.4 4.07 218.45 4.07 218.45 23.1"/>
      <path class="cls-1" d="m447.84,48.54v-1.94c3.15-.39,5.98-1.33,8.49-2.81,2.91-1.71,5.19-4.03,6.82-6.94,1.63-2.91,2.44-6.3,2.44-10.16,0-6.94-2.49-12.45-7.46-16.53-4.97-4.07-12.34-6.11-22.11-6.11h-66.35v90.01h66.35c7.63,0,13.86-.96,18.71-2.89,4.84-1.93,8.4-4.69,10.67-8.29,2.27-3.6,3.41-7.93,3.41-12.99,0-6.43-2.02-11.55-6.05-15.36-3.7-3.51-8.68-5.49-14.91-5.99Zm-64.93-33.16h52.46c5.48,0,9.68,1.24,12.6,3.73,2.91,2.48,4.37,5.87,4.37,10.16s-1.46,7.57-4.37,10.09c-2.91,2.53-7.11,3.79-12.6,3.79h-52.46V15.38Zm68.02,63.58c-3.09,2.53-7.84,3.79-14.27,3.79h-53.75v-28.93h53.75c6.43,0,11.18,1.27,14.27,3.8,3.09,2.53,4.63,6.11,4.63,10.74s-1.54,8.08-4.63,10.61Z"/>
      <polygon class="cls-1" points="484.87 94.07 571.02 94.07 571.02 82.76 498.11 82.76 498.11 53.7 562.02 53.7 562.02 43.03 498.11 43.03 498.11 15.38 571.02 15.38 571.02 4.07 484.87 4.07 484.87 94.07"/>
      <polygon class="cls-1" points="580.66 15.38 621.42 15.38 621.42 94.07 634.66 94.07 634.66 15.38 675.42 15.38 675.42 4.07 580.66 4.07 580.66 15.38"/>
      <path class="cls-1" d="m770.18,8.57c-8.83-4.03-19.41-6.04-31.76-6.04s-22.93,2.02-31.76,6.04c-8.83,4.03-15.49,9.56-20,16.59-4.5,7.03-6.75,15-6.75,23.92s2.25,16.89,6.75,23.91c4.5,7.03,11.16,12.56,20,16.59,8.83,4.03,19.41,6.04,31.76,6.04s22.93-2.01,31.76-6.04c8.83-4.03,15.49-9.56,20-16.59,4.5-7.03,6.75-15,6.75-23.91s-2.25-16.89-6.75-23.92c-4.5-7.03-11.17-12.56-20-16.59Zm8.29,58.51c-3.47,5.32-8.61,9.52-15.43,12.6-6.81,3.08-15.02,4.63-24.62,4.63s-17.81-1.55-24.62-4.63c-6.81-3.09-11.95-7.29-15.43-12.6-3.47-5.32-5.2-11.32-5.2-18s1.73-12.68,5.2-18c3.47-5.32,8.62-9.52,15.43-12.6,6.82-3.09,15.03-4.63,24.62-4.63s17.81,1.54,24.62,4.63c6.82,3.09,11.96,7.29,15.43,12.6,3.47,5.32,5.21,11.31,5.21,18s-1.73,12.68-5.21,18Z"/>
      <path class="cls-1" d="m901.21,67.59c0,3.77.17,6.96.52,9.58.34,2.62.9,5.64,1.67,9.07h-1.67L833.83,4.07h-20.83v90.01h12.86V30.56c0-3.77-.17-6.96-.52-9.58-.34-2.61-.9-5.63-1.67-9.06h1.67l67.89,82.16h20.83V4.07h-12.86v63.52Z"/>
      <path class="cls-1" d="m939.48,12.45c.92-.77,1.38-1.84,1.38-3.2s-.46-2.38-1.38-3.17c-.92-.79-2.19-1.18-3.81-1.18h-5.12v12.81h2.18v-4.1h2.95c.18,0,.35-.02.52-.03l2.68,4.13h2.21l-2.93-4.51c.5-.19.95-.42,1.33-.74Zm-3.97-.64h-2.82v-5.09h2.82c1.02,0,1.82.22,2.39.66.57.44.85,1.06.85,1.87s-.28,1.44-.85,1.89c-.57.45-1.36.67-2.39.67Z"/>
      <path class="cls-1" d="m945.54,6.8c-.57-1.35-1.36-2.55-2.37-3.57-1.01-1.02-2.21-1.82-3.59-2.39-1.38-.56-2.87-.85-4.47-.85s-3.09.29-4.47.86c-1.38.58-2.58,1.38-3.6,2.42-1.02,1.04-1.82,2.24-2.4,3.6-.58,1.37-.86,2.84-.86,4.42s.28,3.05.85,4.42c.57,1.37,1.36,2.57,2.39,3.6,1.02,1.04,2.22,1.84,3.59,2.42,1.37.58,2.85.86,4.45.86s3.08-.29,4.45-.86c1.37-.58,2.57-1.38,3.6-2.42,1.04-1.04,1.84-2.24,2.42-3.62.58-1.38.86-2.87.86-4.47s-.28-3.08-.85-4.43Zm-1.39,8.32c-.49,1.21-1.18,2.26-2.08,3.15-.9.9-1.94,1.6-3.14,2.11-1.2.51-2.49.77-3.87.77s-2.68-.25-3.87-.75c-1.2-.5-2.23-1.2-3.11-2.1-.88-.9-1.56-1.94-2.05-3.14-.49-1.19-.74-2.49-.74-3.87s.25-2.67.74-3.86c.49-1.18,1.17-2.23,2.05-3.14.87-.91,1.92-1.61,3.12-2.11,1.21-.5,2.51-.75,3.92-.75s2.71.25,3.89.75c1.18.5,2.21,1.19,3.09,2.06.88.88,1.56,1.91,2.05,3.11.49,1.2.74,2.49.74,3.87s-.25,2.68-.74,3.89Z"/>
    </g>
  </g>
</svg>